<?xml version="1.0" encoding="UTF-8" standalone="no"?>
<svg
   xmlns:dc="http://purl.org/dc/elements/1.1/"
   xmlns:cc="http://creativecommons.org/ns#"
   xmlns:rdf="http://www.w3.org/1999/02/22-rdf-syntax-ns#"
   xmlns:svg="http://www.w3.org/2000/svg"
   xmlns="http://www.w3.org/2000/svg"
   version="1.1"
   id="svg2"
   xml:space="preserve"
   width="35"
   height="35"
   viewBox="0 0 34.999999 34.999999"><metadata
     id="metadata8"><rdf:RDF><cc:Work
         rdf:about=""><dc:format>image/svg+xml</dc:format><dc:type
           rdf:resource="http://purl.org/dc/dcmitype/StillImage" /><dc:title></dc:title></cc:Work></rdf:RDF></metadata><defs
     id="defs6" /><g
     id="g10"
     transform="matrix(0.0216585,0,0,-0.0216585,-4.1583758,39.158428)"><path
       id="path14"
       style="fill:#aaaaaa;fill-opacity:1;fill-rule:nonzero;stroke:none;stroke-width:0.1"
       d="m 1552.63,1253.99 c -16.38,0 -32.76,6.25 -45.26,18.75 l -234.64,234.63 c -24.99,25 -24.99,65.52 0,90.51 25,25 65.52,25 90.51,0 l 234.64,-234.64 c 25,-24.99 25,-65.51 0,-90.5 -12.5,-12.5 -28.87,-18.75 -45.25,-18.75" /><g
       transform="scale(0.11098)"
       id="g16"
       style="fill:#aaaaaa;fill-opacity:1"><path
         id="path18"
         style="fill:#aaaaaa;fill-opacity:1;fill-rule:nonzero;stroke:none"
         d="m 5893.54,3202.64 c -147.59,0 -295.17,56.32 -407.78,168.95 -225.21,225.17 -225.21,590.28 0,815.55 l 9359.14,9359.06 c 184.7,184.7 288.7,427.1 292.8,682.4 4,247.9 -88.1,478.7 -259.3,649.9 -358,358 -955.7,342.9 -1332.2,-33.6 L 4187.09,5485.75 c -225.21,-225.18 -590.35,-225.18 -815.55,0 -225.2,225.26 -225.2,590.37 0,815.54 l 9359.06,9359.11 c 397.9,397.9 923.3,621.8 1479.7,630.5 562.7,8.9 1090,-203.2 1483.6,-596.9 394.1,-394 606.1,-921 597,-1484 -9,-556.4 -232.9,-1081.7 -630.5,-1479.4 L 6301.31,3371.59 c -112.6,-112.63 -260.19,-168.95 -407.77,-168.95" /></g><path
       id="path20"
       style="fill:#aaaaaa;fill-opacity:1;fill-rule:nonzero;stroke:none;stroke-width:0.1"
       d="m 442.13,540.85 -68.759,-167.48 167.48,68.76 z M 256.013,192 c -16.659,0 -33.026,6.5 -45.268,18.75 -18.253,18.25 -23.754,45.68 -13.95,69.56 l 163.427,398.06 c 8.132,19.81 25.629,34.24 46.621,38.45 20.993,4.2 42.699,-2.36 57.839,-17.5 L 699.319,464.68 c 15.139,-15.14 21.706,-36.85 17.496,-57.84 -4.21,-20.99 -18.638,-38.49 -38.444,-46.62 L 280.306,196.79 C 272.443,193.57 264.192,192 256.013,192" /></g></svg>